<svg id="visual" viewBox="0 0 900 600" width="900" height="600" xmlns="http://www.w3.org/2000/svg" xmlns:xlink="http://www.w3.org/1999/xlink" version="1.1"><path d="M0 211L129 133L257 157L386 109L514 151L643 169L771 115L900 175L900 0L771 0L643 0L514 0L386 0L257 0L129 0L0 0Z" fill="#f9fafb"></path><path d="M0 295L129 193L257 235L386 187L514 217L643 271L771 199L900 253L900 173L771 113L643 167L514 149L386 107L257 155L129 131L0 209Z" fill="#c9dcee"></path><path d="M0 421L129 451L257 397L386 403L514 427L643 421L771 415L900 451L900 251L771 197L643 269L514 215L386 185L257 233L129 191L0 293Z" fill="#99bee1"></path><path d="M0 517L129 547L257 529L386 535L514 535L643 547L771 529L900 535L900 449L771 413L643 419L514 425L386 401L257 395L129 449L0 419Z" fill="#64a1d4"></path><path d="M0 601L129 601L257 601L386 601L514 601L643 601L771 601L900 601L900 533L771 527L643 545L514 533L386 533L257 527L129 545L0 515Z" fill="#0284c7"></path></svg>