<svg id="visual" viewBox="0 0 900 600" width="900" height="600" xmlns="http://www.w3.org/2000/svg" xmlns:xlink="http://www.w3.org/1999/xlink" version="1.1"><rect x="0" y="0" width="900" height="600" fill="#F9FAFB"></rect><defs><linearGradient id="grad1_0" x1="33.3%" y1="0%" x2="100%" y2="100%"><stop offset="20%" stop-color="#0284c7" stop-opacity="1"></stop><stop offset="80%" stop-color="#0284c7" stop-opacity="1"></stop></linearGradient></defs><defs><linearGradient id="grad1_1" x1="33.3%" y1="0%" x2="100%" y2="100%"><stop offset="20%" stop-color="#0284c7" stop-opacity="1"></stop><stop offset="80%" stop-color="#f9fafb" stop-opacity="1"></stop></linearGradient></defs><defs><linearGradient id="grad2_0" x1="0%" y1="0%" x2="66.7%" y2="100%"><stop offset="20%" stop-color="#0284c7" stop-opacity="1"></stop><stop offset="80%" stop-color="#0284c7" stop-opacity="1"></stop></linearGradient></defs><defs><linearGradient id="grad2_1" x1="0%" y1="0%" x2="66.7%" y2="100%"><stop offset="20%" stop-color="#f9fafb" stop-opacity="1"></stop><stop offset="80%" stop-color="#0284c7" stop-opacity="1"></stop></linearGradient></defs><g transform="translate(900, 0)"><path d="M0 378.6C-56.7 380.9 -113.4 383.2 -144.9 349.8C-176.3 316.3 -182.5 247.1 -207.2 207.2C-231.9 167.3 -275.1 156.7 -306.7 127.1C-338.4 97.4 -358.5 48.7 -378.6 0L0 0Z" fill="#99bee1"></path><path d="M0 189.3C-28.4 190.5 -56.7 191.6 -72.4 174.9C-88.2 158.2 -91.2 123.5 -103.6 103.6C-115.9 83.6 -137.5 78.3 -153.4 63.5C-169.2 48.7 -179.2 24.4 -189.3 0L0 0Z" fill="#0284c7"></path></g><g transform="translate(0, 600)"><path d="M0 -378.6C53 -377.1 106.1 -375.6 144.9 -349.8C183.7 -324 208.2 -273.9 234.8 -234.8C261.3 -195.6 289.8 -167.4 314.1 -130.1C338.4 -92.8 358.5 -46.4 378.6 0L0 0Z" fill="#99bee1"></path><path d="M0 -189.3C26.5 -188.5 53 -187.8 72.4 -174.9C91.8 -162 104.1 -136.9 117.4 -117.4C130.6 -97.8 144.9 -83.7 157.1 -65.1C169.2 -46.4 179.3 -23.2 189.3 0L0 0Z" fill="#0284c7"></path></g></svg>